<?xml version="1.0" encoding="UTF-8" standalone="no"?>
<!-- Created with Inkscape (http://www.inkscape.org/) -->
<svg width="34.009998mm" height="23.01mm" viewBox="0 0 34.009998 23.01" version="1.1" id="svg5" inkscape:version="1.1.1 (3bf5ae0d25, 2021-09-20)" sodipodi:docname="RERO+ils-chemins.svg" xmlns:inkscape="http://www.inkscape.org/namespaces/inkscape" xmlns:sodipodi="http://sodipodi.sourceforge.net/DTD/sodipodi-0.dtd" xmlns="http://www.w3.org/2000/svg" xmlns:svg="http://www.w3.org/2000/svg">
  <sodipodi:namedview id="namedview7" pagecolor="#ffffff" bordercolor="#666666" borderopacity="1.0" inkscape:pageshadow="2" inkscape:pageopacity="0.0" inkscape:pagecheckerboard="0" inkscape:document-units="mm" showgrid="false" fit-margin-top="0" fit-margin-left="0" fit-margin-right="0" fit-margin-bottom="0" inkscape:zoom="4.8604938" inkscape:cx="88.776988" inkscape:cy="49.480569" inkscape:window-width="1920" inkscape:window-height="1055" inkscape:window-x="0" inkscape:window-y="-5" inkscape:window-maximized="1" inkscape:current-layer="g97"/>
  <defs id="defs2">
    <g id="bullet-char-template-57356" transform="matrix(4.8828125e-4,0,0,-4.8828125e-4,0,0)">
   <path d="M 580,1141 1163,571 580,0 -4,571 Z" id="path9"/>

  </g>
    <g id="bullet-char-template-57354" transform="matrix(4.8828125e-4,0,0,-4.8828125e-4,0,0)">
   <path d="M 8,1128 H 1137 V 0 H 8 Z" id="path12"/>

  </g>
    <g id="bullet-char-template-10146" transform="matrix(4.8828125e-4,0,0,-4.8828125e-4,0,0)">
   <path d="M 174,0 602,739 174,1481 1456,739 Z M 1358,739 309,1346 659,739 Z" id="path15"/>

  </g>
    <g id="bullet-char-template-10132" transform="matrix(4.8828125e-4,0,0,-4.8828125e-4,0,0)">
   <path d="M 2015,739 1276,0 H 717 l 543,543 H 174 v 393 h 1086 l -543,545 h 557 z" id="path18"/>

  </g>
    <g id="bullet-char-template-10007" transform="matrix(4.8828125e-4,0,0,-4.8828125e-4,0,0)">
   <path d="m 0,-2 c -7,16 -16,29 -25,39 l 381,530 c -94,256 -141,385 -141,387 0,25 13,38 40,38 9,0 21,-2 34,-5 21,4 42,12 65,25 l 27,-13 111,-251 280,301 64,-25 24,25 c 21,-10 41,-24 62,-43 C 886,937 835,863 770,784 769,783 710,716 594,584 L 774,223 c 0,-27 -21,-55 -63,-84 l 16,-20 C 717,90 699,76 672,76 641,76 570,178 457,381 L 164,-76 c -22,-34 -53,-51 -92,-51 -42,0 -63,17 -64,51 -7,9 -10,24 -10,44 0,9 1,19 2,30 z" id="path21"/>

  </g>
    <g id="bullet-char-template-10004" transform="matrix(4.8828125e-4,0,0,-4.8828125e-4,0,0)">
   <path d="M 285,-33 C 182,-33 111,30 74,156 52,228 41,333 41,471 c 0,78 14,145 41,201 34,71 87,106 158,106 53,0 88,-31 106,-94 l 23,-176 c 8,-64 28,-97 59,-98 l 735,706 c 11,11 33,17 66,17 42,0 63,-15 63,-46 V 965 c 0,-36 -10,-64 -30,-84 L 442,47 C 390,-6 338,-33 285,-33 Z" id="path24"/>

  </g>
    <g id="bullet-char-template-9679" transform="matrix(4.8828125e-4,0,0,-4.8828125e-4,0,0)">
   <path d="M 813,0 C 632,0 489,54 383,161 276,268 223,411 223,592 c 0,181 53,324 160,431 106,107 249,161 430,161 179,0 323,-54 432,-161 108,-107 162,-251 162,-431 0,-180 -54,-324 -162,-431 C 1136,54 992,0 813,0 Z" id="path27"/>

  </g>
    <g id="bullet-char-template-8226" transform="matrix(4.8828125e-4,0,0,-4.8828125e-4,0,0)">
   <path d="m 346,457 c -73,0 -137,26 -191,78 -54,51 -81,114 -81,188 0,73 27,136 81,188 54,52 118,78 191,78 73,0 134,-26 185,-79 51,-51 77,-114 77,-187 0,-75 -25,-137 -76,-188 -50,-52 -112,-78 -186,-78 z" id="path30"/>

  </g>
    <g id="bullet-char-template-8211" transform="matrix(4.8828125e-4,0,0,-4.8828125e-4,0,0)">
   <path d="M -4,459 H 1135 V 606 H -4 Z" id="path33"/>

  </g>
    <g id="bullet-char-template-61548" transform="matrix(4.8828125e-4,0,0,-4.8828125e-4,0,0)">
   <path d="m 173,740 c 0,163 58,303 173,419 116,115 255,173 419,173 163,0 302,-58 418,-173 116,-116 174,-256 174,-419 0,-163 -58,-303 -174,-418 C 1067,206 928,148 765,148 601,148 462,206 346,322 231,437 173,577 173,740 Z" id="path36"/>

  </g>
  </defs>
  <g inkscape:label="Calque 1" inkscape:groupmode="layer" id="layer1" transform="translate(-76.188548,-110.86597)">
    <g style="fill-rule:evenodd;stroke-width:28.222;stroke-linejoin:round" id="g156" transform="matrix(0.01,0,0,0.01,55.188548,-104.13403)">
      <g class="Page" id="g97">
  <g class="com.sun.star.drawing.CustomShape" id="g44">
   <g id="id3">
    <rect class="BoundingBox" stroke="none" fill="none" x="2100" y="21500" width="3401" height="2301" id="rect41"/>

   </g>

  </g>

  <g class="Group" id="g95">
   <g class="com.sun.star.drawing.ClosedBezierShape" id="g51">
    <g id="id4">
     <path id="rect46" class="BoundingBox" style="fill:none" d="m 3113,21805 h 384 v 1762 h -384 z"/>

     <path fill="#49a3d3" stroke="none" d="m 3157,22383 h 296 v 1183 h -296 z m -43,-400 c 0,-48 18,-89 54,-125 35,-35 79,-53 134,-53 54,0 100,18 137,51 39,34 57,76 57,127 0,51 -18,93 -57,127 -37,33 -83,49 -137,49 -55,0 -99,-17 -134,-52 -36,-35 -54,-77 -54,-124 z" id="path48"/>

    </g>

   </g>

   <g class="com.sun.star.drawing.PolyPolygonShape" id="g58">
    <g id="id5">
     <path id="rect53" class="BoundingBox" style="fill:none" d="m 3798,21705 h 300 v 1862 h -300 z"/>

     <path fill="#3160a7" stroke="none" d="m 3798,21705 h 299 v 1861 h -299 z" id="path55"/>

    </g>

   </g>

   <g class="com.sun.star.drawing.ClosedBezierShape" id="g65">
    <g id="id6">
     <path id="rect60" class="BoundingBox" style="fill:none" d="m 4330,22353 h 976 v 1243 h -976 z"/>

     <path fill="#3160a7" stroke="none" d="m 5069,22712 c -57,-80 -135,-121 -233,-121 -38,0 -77,10 -116,30 -37,20 -56,51 -56,96 0,35 16,62 47,78 31,17 70,30 118,43 48,11 100,23 155,35 55,12 107,32 154,57 48,25 89,60 120,104 32,44 47,105 47,182 0,71 -15,131 -46,178 -30,49 -71,87 -119,117 -49,30 -104,52 -165,65 -61,12 -121,19 -182,19 -93,0 -178,-13 -255,-40 -77,-26 -147,-74 -208,-143 l 198,-184 c 37,44 78,78 122,105 44,27 97,41 160,41 21,0 44,-3 66,-8 24,-5 45,-13 64,-24 21,-12 37,-26 49,-43 12,-17 19,-38 19,-61 0,-40 -17,-71 -47,-91 -32,-19 -72,-36 -119,-48 -48,-12 -99,-23 -154,-34 -56,-10 -107,-28 -155,-52 -48,-23 -88,-57 -118,-99 -32,-43 -48,-102 -48,-178 0,-65 14,-123 42,-170 26,-49 62,-88 107,-120 44,-32 95,-55 152,-70 58,-15 118,-22 177,-22 78,0 156,13 234,40 77,28 141,76 189,140 z" id="path62"/>

    </g>

   </g>

   <g class="com.sun.star.drawing.ClosedBezierShape" id="g72">
    <g id="id7">
     <path id="rect67" class="BoundingBox" style="fill:none" d="m 2295,23245 h 510 v 317 h -510 z"/>

     <path fill="#3160a7" stroke="none" d="m 2308,23561 v -124 h 78 v -2 c -29,-14 -51,-34 -67,-59 -16,-25 -24,-54 -24,-87 0,-7 1,-14 3,-23 1,-7 3,-14 5,-21 h 119 c -3,10 -5,20 -7,31 -1,9 -2,19 -2,28 0,29 5,52 15,70 12,17 24,30 37,40 14,9 28,15 42,18 13,3 23,5 30,5 h 266 v 124 z" id="path69"/>

    </g>

   </g>

   <g class="com.sun.star.drawing.ClosedBezierShape" id="g79">
    <g id="id8">
     <path id="rect74" class="BoundingBox" style="fill:none" d="m 2295,22691 h 521 v 502 h -521 z"/>

     <path fill="#3160a7" stroke="none" d="m 2506,23067 c -36,-4 -64,-18 -86,-40 -21,-21 -31,-51 -31,-87 0,-39 10,-69 30,-91 22,-23 50,-34 87,-34 z m 58,-375 c -43,0 -82,6 -114,17 -34,11 -61,27 -85,46 -22,21 -39,45 -52,73 -12,29 -18,60 -18,95 0,36 6,72 19,104 13,33 30,61 52,85 24,24 50,44 83,58 31,14 67,21 106,21 39,0 75,-7 107,-21 32,-14 60,-34 82,-58 24,-24 41,-52 53,-85 10,-26 15,-54 17,-83 h -97 c -2,31 -13,58 -32,80 -21,24 -50,39 -86,43 v -375 z" id="path76"/>

    </g>

   </g>

   <g class="com.sun.star.drawing.ClosedBezierShape" id="g86">
    <g id="id9">
     <path id="rect81" class="BoundingBox" style="fill:none" d="m 2295,22289 h 510 v 317 h -510 z"/>

     <path fill="#49a3d3" stroke="none" d="m 2308,22604 v -122 h 78 v -2 c -29,-15 -51,-34 -67,-59 -16,-26 -24,-54 -24,-87 0,-7 1,-15 2,-22 2,-7 4,-15 6,-23 h 119 c -3,11 -5,21 -7,31 -1,11 -2,20 -2,30 0,28 5,52 15,69 12,17 24,30 37,39 14,9 28,16 42,19 13,4 23,5 30,5 h 266 v 122 z" id="path83"/>

    </g>

   </g>

   <g class="com.sun.star.drawing.ClosedBezierShape" id="g93">
    <g id="id10">
     <path id="rect88" class="BoundingBox" style="fill:none" d="m 2295,21707 h 522 v 538 h -522 z"/>

     <path fill="#49a3d3" stroke="none" d="m 2555,22120 c 19,0 37,-4 56,-10 17,-7 33,-17 47,-29 14,-13 25,-28 33,-45 9,-19 13,-39 13,-61 0,-23 -4,-43 -13,-61 -8,-17 -19,-33 -33,-46 -14,-12 -30,-21 -47,-28 -19,-6 -37,-9 -56,-9 -20,0 -38,3 -55,9 -19,7 -34,16 -48,28 -13,13 -25,29 -33,46 -8,18 -12,38 -12,61 0,22 4,42 12,61 8,17 20,32 33,45 14,12 29,22 48,29 17,6 35,10 55,10 z m 0,123 c -39,0 -75,-7 -106,-21 -33,-15 -59,-33 -83,-58 -22,-23 -39,-51 -52,-85 -12,-32 -19,-67 -19,-104 1,-37 7,-72 19,-105 13,-32 30,-61 52,-85 24,-24 50,-42 83,-57 31,-14 67,-21 106,-21 39,0 75,7 107,21 31,15 60,33 82,57 24,24 41,53 53,85 12,33 19,68 19,105 0,37 -7,72 -19,104 -12,34 -29,62 -53,85 -22,25 -51,43 -82,58 -32,14 -68,21 -107,21 z" id="path90"/>

    </g>

   </g>

  </g>

 </g>
    </g>
  </g>
</svg>