<?xml version="1.0" encoding="UTF-8" standalone="no"?>
<!DOCTYPE svg PUBLIC "-//W3C//DTD SVG 1.1//EN" "http://www.w3.org/Graphics/SVG/1.1/DTD/svg11.dtd">
<svg width="100%" height="100%" viewBox="0 0 58 58" version="1.1" xmlns="http://www.w3.org/2000/svg" xmlns:xlink="http://www.w3.org/1999/xlink" xml:space="preserve" xmlns:serif="http://www.serif.com/" style="fill-rule:evenodd;clip-rule:evenodd;stroke-linecap:round;stroke-linejoin:round;stroke-miterlimit:1.5;">
    <g transform="matrix(1.18045,0,0,1.18279,-0.410177,1.64825)">
        <g transform="matrix(1,0,0,1,1.48496,-0.298067)">
            <path d="M41.219,18.429C41.219,15.587 38.321,13.28 34.751,13.28C31.182,13.28 28.284,15.587 28.284,18.429C28.284,20.108 29.313,21.681 31.04,22.645L30.224,26.151L33.076,23.401C33.622,23.518 34.186,23.577 34.751,23.577C38.321,23.577 41.219,21.27 41.219,18.429Z" style="fill:none;stroke:rgb(179,179,179);stroke-width:1.69px;"/>
        </g>
        <g transform="matrix(0.847134,0,0,0.845459,42.8905,-1.31149)">
            <path d="M3.951,14.563L3.876,44.49" style="fill:none;stroke:rgb(179,179,179);stroke-width:2px;"/>
        </g>
        <g transform="matrix(0.847134,0,0,0.845459,21.5486,-0.0418564)">
            <path d="M3.951,14.563L3.876,44.49" style="fill:none;stroke:rgb(179,179,179);stroke-width:2px;"/>
        </g>
        <g transform="matrix(0.847134,0,0,0.845459,0.347475,-1.39352)">
            <path d="M3.951,14.563L3.876,44.49" style="fill:none;stroke:rgb(179,179,179);stroke-width:2px;"/>
        </g>
        <g transform="matrix(0.847134,0,0,0.845459,0.329709,1.3202)">
            <path d="M3.949,11.079C8.777,9.535 13.839,7.915 18.896,8.271C22.599,8.531 25.964,10.782 29.05,12.845" style="fill:none;stroke:rgb(179,179,179);stroke-width:2px;"/>
        </g>
        <g transform="matrix(0.847134,0,0,0.845459,0.298508,27.1187)">
            <path d="M3.949,11.079C8.777,9.535 13.839,7.915 18.896,8.271C22.599,8.531 25.964,10.782 29.05,12.845" style="fill:none;stroke:rgb(179,179,179);stroke-width:2px;"/>
        </g>
        <g transform="matrix(-0.847134,0,0,0.845459,49.5078,27.0458)">
            <path d="M3.949,11.079C8.777,9.535 13.839,7.915 18.896,8.271C22.599,8.531 25.964,10.782 29.05,12.845" style="fill:none;stroke:rgb(179,179,179);stroke-width:2px;"/>
        </g>
        <g transform="matrix(-0.847134,0,0,0.845459,49.53,1.3119)">
            <path d="M3.949,11.079C8.777,9.535 13.839,7.915 18.896,8.271C22.599,8.531 25.964,10.782 29.05,12.845" style="fill:none;stroke:rgb(179,179,179);stroke-width:2px;"/>
        </g>
        <g transform="matrix(1.06282,0,0,0.812155,-3.47326,-0.377151)">
            <path d="M15.263,11.07L17.714,30.518" style="fill:none;stroke:rgb(179,179,179);stroke-width:1.79px;"/>
        </g>
        <g transform="matrix(0.847134,0,0,0.845459,0.347475,-1.39352)">
            <path d="M4.959,33.055L28.982,28.921" style="fill:none;stroke:rgb(179,179,179);stroke-width:2px;"/>
        </g>
    </g>
</svg>
