<?xml version="1.0" encoding="UTF-8" standalone="no"?>
<!DOCTYPE svg PUBLIC "-//W3C//DTD SVG 1.1//EN" "http://www.w3.org/Graphics/SVG/1.1/DTD/svg11.dtd">
<svg width="100%" height="100%" viewBox="0 0 58 58" version="1.1" xmlns="http://www.w3.org/2000/svg" xmlns:xlink="http://www.w3.org/1999/xlink" xml:space="preserve" xmlns:serif="http://www.serif.com/" style="fill-rule:evenodd;clip-rule:evenodd;stroke-linejoin:round;stroke-miterlimit:1.5;">
    <g transform="matrix(1.1764,0,0,1.1764,29.0706,28.9953)">
        <g transform="matrix(1.21819,0,0,1.22134,-36.1046,-35.8491)">
            <ellipse cx="35.133" cy="35.241" rx="3.489" ry="3.48" style="fill:rgb(179,179,179);"/>
        </g>
        <g transform="matrix(1.21819,0,0,1.22134,-31.3827,-48.7102)">
            <ellipse cx="35.133" cy="35.241" rx="3.489" ry="3.48" style="fill:rgb(179,179,179);"/>
        </g>
        <g transform="matrix(6.22463e-17,-1.09168,1.01656,6.68464e-17,-37.4575,19.3549)">
            <g transform="matrix(6.12323e-17,1,-1,6.12323e-17,46.4206,11.5689)">
                <path d="M10.372,29.024L24.418,28.992" style="fill:none;stroke:rgb(179,179,179);stroke-width:4px;"/>
            </g>
            <path d="M10.372,29.024L24.418,28.992" style="fill:none;stroke:rgb(179,179,179);stroke-width:4px;"/>
        </g>
        <g transform="matrix(4.58617e-17,-0.748978,0.782783,4.79316e-17,-23.03,20.7032)">
            <path d="M46.917,10.478C46.917,7.12 44.279,4.395 41.029,4.395L14.259,4.395C11.009,4.395 8.371,7.12 8.371,10.478L8.371,48.228C8.371,51.585 11.009,54.311 14.259,54.311L41.029,54.311C44.279,54.311 46.917,51.585 46.917,48.228L46.917,10.478Z" style="fill:none;stroke:rgb(179,179,179);stroke-width:1.96px;stroke-linecap:round;"/>
        </g>
    </g>
</svg>
