<?xml version="1.0" encoding="UTF-8" standalone="no"?>
<!DOCTYPE svg PUBLIC "-//W3C//DTD SVG 1.1//EN" "http://www.w3.org/Graphics/SVG/1.1/DTD/svg11.dtd">
<svg width="100%" height="100%" viewBox="0 0 58 58" version="1.1" xmlns="http://www.w3.org/2000/svg" xmlns:xlink="http://www.w3.org/1999/xlink" xml:space="preserve" xmlns:serif="http://www.serif.com/" style="fill-rule:evenodd;clip-rule:evenodd;stroke-linecap:round;stroke-linejoin:round;stroke-miterlimit:1.5;">
    <g transform="matrix(0.798752,0,0,0.798752,3.86784,-0.426882)">
        <g transform="matrix(1.14564,0,0,1.42446,-1.76272,-7.38661)">
            <g transform="matrix(1,0,0,1,0.0388898,6.14244)">
                <path d="M3.949,11.079C8.777,9.535 13.839,7.915 18.896,8.271C22.599,8.531 25.964,10.782 29.05,12.845" style="fill:none;stroke:rgb(179,179,179);stroke-width:2px;"/>
            </g>
            <g transform="matrix(1,0,0,1,50.2073,3.03478)">
                <path d="M3.951,14.563L3.876,44.49" style="fill:none;stroke:rgb(179,179,179);stroke-width:2px;"/>
            </g>
            <g transform="matrix(1,0,0,1,25.0142,4.53649)">
                <path d="M3.951,14.563L3.876,44.49" style="fill:none;stroke:rgb(179,179,179);stroke-width:2px;"/>
            </g>
            <g transform="matrix(1,0,0,1,-0.0126694,2.93775)">
                <path d="M3.951,14.563L3.876,44.49" style="fill:none;stroke:rgb(179,179,179);stroke-width:2px;"/>
            </g>
            <g transform="matrix(1,0,0,1,0.00205898,36.6566)">
                <path d="M3.949,11.079C8.777,9.535 13.839,7.915 18.896,8.271C22.599,8.531 25.964,10.782 29.05,12.845" style="fill:none;stroke:rgb(179,179,179);stroke-width:2px;"/>
            </g>
            <g transform="matrix(-1,0,0,1,58.0912,36.5705)">
                <path d="M3.949,11.079C8.777,9.535 13.839,7.915 18.896,8.271C22.599,8.531 25.964,10.782 29.05,12.845" style="fill:none;stroke:rgb(179,179,179);stroke-width:2px;"/>
            </g>
            <g transform="matrix(-1,0,0,1,58.1174,6.13262)">
                <path d="M3.949,11.079C8.777,9.535 13.839,7.915 18.896,8.271C22.599,8.531 25.964,10.782 29.05,12.845" style="fill:none;stroke:rgb(179,179,179);stroke-width:2px;"/>
            </g>
        </g>
        <g transform="matrix(1.14564,0,0,1.42446,-1.76272,-7.38661)">
            <g transform="matrix(0.675821,0,0,0.547004,5.42611,27.2088)">
                <path d="M3.949,11.079C8.777,9.535 13.839,7.915 18.896,8.271C22.599,8.531 25.964,10.782 29.05,12.845" style="fill:none;stroke:rgb(179,179,179);stroke-width:3.25px;"/>
            </g>
            <g transform="matrix(0.675821,0,0,0.547004,5.45302,31.163)">
                <path d="M3.949,11.079C8.777,9.535 13.839,7.915 18.896,8.271C22.599,8.531 25.964,10.782 29.05,12.845" style="fill:none;stroke:rgb(179,179,179);stroke-width:3.25px;"/>
            </g>
            <g transform="matrix(0.675821,0,0,0.547004,5.46516,35.3055)">
                <path d="M3.949,11.079C8.777,9.535 13.839,7.915 18.896,8.271C22.599,8.531 25.964,10.782 29.05,12.845" style="fill:none;stroke:rgb(179,179,179);stroke-width:3.25px;"/>
            </g>
        </g>
        <g transform="matrix(-1.14564,0,0,1.42446,64.5175,-7.02593)">
            <g transform="matrix(0.675821,0,0,0.547004,5.40842,14.7695)">
                <path d="M3.949,11.079C8.777,9.535 13.839,7.915 18.896,8.271C22.599,8.531 25.964,10.782 29.05,12.845" style="fill:none;stroke:rgb(179,179,179);stroke-width:3.25px;"/>
            </g>
            <g transform="matrix(0.675821,0,0,0.547004,5.42272,19.1978)">
                <path d="M3.949,11.079C8.777,9.535 13.839,7.915 18.896,8.271C22.599,8.531 25.964,10.782 29.05,12.845" style="fill:none;stroke:rgb(179,179,179);stroke-width:3.25px;"/>
            </g>
            <g transform="matrix(0.675821,0,0,0.547004,5.40593,23.1291)">
                <path d="M3.949,11.079C8.777,9.535 13.839,7.915 18.896,8.271C22.599,8.531 25.964,10.782 29.05,12.845" style="fill:none;stroke:rgb(179,179,179);stroke-width:3.25px;"/>
            </g>
            <g transform="matrix(0.675821,0,0,0.547004,5.42611,27.2088)">
                <path d="M3.949,11.079C8.777,9.535 13.839,7.915 18.896,8.271C22.599,8.531 25.964,10.782 29.05,12.845" style="fill:none;stroke:rgb(179,179,179);stroke-width:3.25px;"/>
            </g>
            <g transform="matrix(0.675821,0,0,0.547004,5.45302,31.163)">
                <path d="M3.949,11.079C8.777,9.535 13.839,7.915 18.896,8.271C22.599,8.531 25.964,10.782 29.05,12.845" style="fill:none;stroke:rgb(179,179,179);stroke-width:3.25px;"/>
            </g>
            <g transform="matrix(0.675821,0,0,0.547004,5.46516,35.3055)">
                <path d="M3.949,11.079C8.777,9.535 13.839,7.915 18.896,8.271C22.599,8.531 25.964,10.782 29.05,12.845" style="fill:none;stroke:rgb(179,179,179);stroke-width:3.25px;"/>
            </g>
        </g>
        <g transform="matrix(3.16896,0,0,3.94018,6.0381,33.7881)">
            <text x="0px" y="0px" style="font-family:'Arial-BoldMT', 'Arial', sans-serif;font-weight:700;font-size:7.23px;fill:rgb(179,179,179);">e</text>
        </g>
    </g>
</svg>
