<?xml version="1.0" encoding="UTF-8" standalone="no"?>
<!DOCTYPE svg PUBLIC "-//W3C//DTD SVG 1.1//EN" "http://www.w3.org/Graphics/SVG/1.1/DTD/svg11.dtd">
<svg width="100%" height="100%" viewBox="0 0 58 58" version="1.1" xmlns="http://www.w3.org/2000/svg" xmlns:xlink="http://www.w3.org/1999/xlink" xml:space="preserve" xmlns:serif="http://www.serif.com/" style="fill-rule:evenodd;clip-rule:evenodd;stroke-linecap:round;stroke-linejoin:round;stroke-miterlimit:1.5;">
    <g transform="matrix(1.23863,0,0,1.23863,-0.720782,-0.716619)">
        <g transform="matrix(0.64451,0,0,0.64197,5.8558,6.03133)">
            <ellipse cx="29.396" cy="29.231" rx="25.017" ry="25.136" style="fill:none;stroke:rgb(179,179,179);stroke-width:2.01px;"/>
        </g>
        <g transform="matrix(0.66985,0,0,0.681856,9.04006,8.27082)">
            <ellipse cx="23.448" cy="24.285" rx="5.826" ry="5.707" style="fill:none;stroke:rgb(179,179,179);stroke-width:1.91px;"/>
        </g>
        <g transform="matrix(-0.668769,-0.438658,0.623366,-0.950924,32.9989,38.9037)">
            <path d="M19.855,18.322L16.647,18.322L17.449,11.426L19.053,11.426L19.855,18.322Z" style="fill:rgb(179,179,179);"/>
        </g>
        <g transform="matrix(0.668769,0.438658,-0.623366,0.950924,15.8679,10.8286)">
            <path d="M19.855,18.322L16.647,18.322L17.449,11.426L19.053,11.426L19.855,18.322Z" style="fill:rgb(179,179,179);"/>
        </g>
    </g>
</svg>
