<?xml version="1.0" encoding="UTF-8" standalone="no"?>
<!DOCTYPE svg PUBLIC "-//W3C//DTD SVG 1.1//EN" "http://www.w3.org/Graphics/SVG/1.1/DTD/svg11.dtd">
<svg width="100%" height="100%" viewBox="0 0 58 58" version="1.1" xmlns="http://www.w3.org/2000/svg" xmlns:xlink="http://www.w3.org/1999/xlink" xml:space="preserve" xmlns:serif="http://www.serif.com/" style="fill-rule:evenodd;clip-rule:evenodd;stroke-linejoin:round;stroke-miterlimit:1.5;">
    <g transform="matrix(2,0,0,2,-0.191454,0.294023)">
        <g transform="matrix(0.852667,0,0,0.880323,0.646189,1.72005)">
            <g transform="matrix(0.717583,0,0,0.157779,-2.99267,13.5499)">
                <path d="M13.971,46.151L28.966,46.26" style="fill:none;stroke:rgb(179,179,179);stroke-width:2.25px;"/>
            </g>
            <g transform="matrix(0.5,0,0,0.5,0.0806426,11.8736)">
                <path d="M14.006,11.992L44.015,12.019" style="fill:none;stroke:rgb(179,179,179);stroke-width:2.31px;"/>
            </g>
            <g transform="matrix(0.5,0,0,0.5,0.0841043,8.81964)">
                <path d="M14.006,11.992L44.015,12.019" style="fill:none;stroke:rgb(179,179,179);stroke-width:2.31px;"/>
            </g>
            <g transform="matrix(0.5,0,0,0.5,0.103695,5.82992)">
                <path d="M14.006,11.992L44.015,12.019" style="fill:none;stroke:rgb(179,179,179);stroke-width:2.31px;"/>
            </g>
            <g transform="matrix(0.5,0,0,0.5,0.104946,2.83941)">
                <path d="M14.006,11.992L44.015,12.019" style="fill:none;stroke:rgb(179,179,179);stroke-width:2.31px;"/>
            </g>
            <g transform="matrix(0.5,0,0,0.5,0.095727,-0.147011)">
                <path d="M14.006,11.992L44.015,12.019" style="fill:none;stroke:rgb(179,179,179);stroke-width:2.31px;"/>
            </g>
        </g>
        <g transform="matrix(0.441027,0,0,0.440735,0.904038,1.43559)">
            <path d="M46.917,10.287C46.917,7.035 44.279,4.395 41.029,4.395L14.259,4.395C11.009,4.395 8.371,7.035 8.371,10.287L8.371,48.419C8.371,51.671 11.009,54.311 14.259,54.311L41.029,54.311C44.279,54.311 46.917,51.671 46.917,48.419L46.917,10.287Z" style="fill:none;stroke:rgb(179,179,179);stroke-width:2.27px;stroke-linecap:round;"/>
        </g>
    </g>
</svg>
