<?xml version="1.0" encoding="UTF-8" standalone="no"?>
<!DOCTYPE svg PUBLIC "-//W3C//DTD SVG 1.1//EN" "http://www.w3.org/Graphics/SVG/1.1/DTD/svg11.dtd">
<svg width="100%" height="100%" viewBox="0 0 58 58" version="1.1" xmlns="http://www.w3.org/2000/svg" xmlns:xlink="http://www.w3.org/1999/xlink" xml:space="preserve" xmlns:serif="http://www.serif.com/" style="fill-rule:evenodd;clip-rule:evenodd;stroke-linecap:round;stroke-linejoin:round;stroke-miterlimit:1.5;">
    <g transform="matrix(2,0,0,2,0.760461,0.196489)">
        <g transform="matrix(0.27374,0,0,0.374345,7.56395,5.60012)">
            <path d="M25.74,30.14L20.66,25.12L20.72,25.06C24.2,21.18 26.68,16.72 28.14,12L34,12L34,8L20,8L20,4L16,4L16,8L2,8L2,11.98L24.34,11.98C23,15.84 20.88,19.5 18,22.7C16.14,20.64 14.6,18.38 13.38,16L9.38,16C10.84,19.26 12.84,22.34 15.34,25.12L5.16,35.16L8,38L18,28L24.22,34.22L25.74,30.14ZM37,20L33,20L24,44L28,44L30.24,38L39.74,38L42,44L46,44L37,20ZM31.76,34L35,25.34L38.24,34L31.76,34Z" style="fill:rgb(179,179,179);fill-rule:nonzero;"/>
        </g>
        <g transform="matrix(0.441027,0,0,0.440735,1.93306,1.48435)">
            <path d="M46.917,10.287C46.917,7.035 44.279,4.395 41.029,4.395L14.259,4.395C11.009,4.395 8.371,7.035 8.371,10.287L8.371,48.419C8.371,51.671 11.009,54.311 14.259,54.311L41.029,54.311C44.279,54.311 46.917,51.671 46.917,48.419L46.917,10.287Z" style="fill:none;stroke:rgb(179,179,179);stroke-width:2.27px;"/>
        </g>
    </g>
</svg>
