<?xml version="1.0" encoding="UTF-8" standalone="no"?>
<!DOCTYPE svg PUBLIC "-//W3C//DTD SVG 1.1//EN" "http://www.w3.org/Graphics/SVG/1.1/DTD/svg11.dtd">
<svg width="100%" height="100%" viewBox="0 0 58 58" version="1.1" xmlns="http://www.w3.org/2000/svg" xmlns:xlink="http://www.w3.org/1999/xlink" xml:space="preserve" xmlns:serif="http://www.serif.com/" style="fill-rule:evenodd;clip-rule:evenodd;stroke-linecap:round;stroke-linejoin:round;stroke-miterlimit:1.5;">
    <g transform="matrix(1.18045,0,0,1.18279,-0.410177,1.64825)">
        <g transform="matrix(0.874853,0,0,0.85353,4.41957,3.13208)">
            <path d="M41.219,18.429C41.219,15.587 38.321,13.28 34.751,13.28C31.182,13.28 28.284,15.587 28.284,18.429C28.284,20.108 29.313,21.681 31.04,22.645L30.224,26.151L33.076,23.401C33.622,23.518 34.186,23.577 34.751,23.577C38.321,23.577 41.219,21.27 41.219,18.429Z" style="fill:none;stroke:rgb(179,179,179);stroke-width:1.96px;"/>
        </g>
        <g transform="matrix(0.741118,0,0,0.721625,40.6433,2.26709)">
            <path d="M3.951,14.563L3.876,44.49" style="fill:none;stroke:rgb(179,179,179);stroke-width:2.31px;"/>
        </g>
        <g transform="matrix(0.741118,0,0,0.721625,21.9723,3.35076)">
            <path d="M3.951,14.563L3.876,44.49" style="fill:none;stroke:rgb(179,179,179);stroke-width:2.31px;"/>
        </g>
        <g transform="matrix(0.741118,0,0,0.721625,3.42444,2.19707)">
            <path d="M3.951,14.563L3.876,44.49" style="fill:none;stroke:rgb(179,179,179);stroke-width:2.31px;"/>
        </g>
        <g transform="matrix(0.741118,0,0,0.721625,3.4089,4.51332)">
            <path d="M3.949,11.079C8.777,9.535 13.839,7.915 18.896,8.271C22.599,8.531 25.964,10.782 29.05,12.845" style="fill:none;stroke:rgb(179,179,179);stroke-width:2.31px;"/>
        </g>
        <g transform="matrix(0.741118,0,0,0.721625,3.3816,26.5331)">
            <path d="M3.949,11.079C8.777,9.535 13.839,7.915 18.896,8.271C22.599,8.531 25.964,10.782 29.05,12.845" style="fill:none;stroke:rgb(179,179,179);stroke-width:2.31px;"/>
        </g>
        <g transform="matrix(-0.741118,0,0,0.721625,46.4325,26.4709)">
            <path d="M3.949,11.079C8.777,9.535 13.839,7.915 18.896,8.271C22.599,8.531 25.964,10.782 29.05,12.845" style="fill:none;stroke:rgb(179,179,179);stroke-width:2.31px;"/>
        </g>
        <g transform="matrix(-0.741118,0,0,0.721625,46.4519,4.50624)">
            <path d="M3.949,11.079C8.777,9.535 13.839,7.915 18.896,8.271C22.599,8.531 25.964,10.782 29.05,12.845" style="fill:none;stroke:rgb(179,179,179);stroke-width:2.31px;"/>
        </g>
        <g transform="matrix(0.929814,0,0,0.693199,0.0818545,3.06458)">
            <path d="M15.263,11.07L17.714,30.518" style="fill:none;stroke:rgb(179,179,179);stroke-width:2.06px;"/>
        </g>
        <g transform="matrix(0.741118,0,0,0.721625,3.42444,2.19707)">
            <path d="M4.959,33.055L28.982,28.921" style="fill:none;stroke:rgb(179,179,179);stroke-width:2.31px;"/>
        </g>
    </g>
</svg>
