<?xml version="1.0" encoding="UTF-8" standalone="no"?>
<!DOCTYPE svg PUBLIC "-//W3C//DTD SVG 1.1//EN" "http://www.w3.org/Graphics/SVG/1.1/DTD/svg11.dtd">
<svg width="100%" height="100%" viewBox="0 0 58 58" version="1.1" xmlns="http://www.w3.org/2000/svg" xmlns:xlink="http://www.w3.org/1999/xlink" xml:space="preserve" xmlns:serif="http://www.serif.com/" style="fill-rule:evenodd;clip-rule:evenodd;stroke-linecap:round;stroke-linejoin:round;stroke-miterlimit:1.5;">
    <g transform="matrix(0.426742,0,0,0.426742,6.23507,18.8063)">
        <g transform="matrix(0.875193,0,0,1.08242,6.65309,-1.98391)">
            <circle cx="29" cy="21" r="2.5" style="fill:rgb(179,179,179);"/>
        </g>
        <g transform="matrix(0.875193,0,0,1.08242,6.65309,-1.98391)">
            <circle cx="19" cy="21" r="2.5" style="fill:rgb(179,179,179);"/>
        </g>
        <g transform="matrix(0.875193,0,0,1.08242,6.65309,-1.98391)">
            <path d="M45.88,22.68C45.38,19.66 43.16,17.2 40.26,16.34C39.2,14.1 37.7,12.14 35.88,10.52C32.72,7.7 28.56,6 24,6C19.44,6 15.28,7.7 12.12,10.52C10.28,12.14 8.78,14.12 7.74,16.34C4.84,17.2 2.62,19.64 2.12,22.68C2.04,23.1 2,23.54 2,24C2,24.46 2.04,24.9 2.12,25.32C2.62,28.34 4.84,30.8 7.74,31.66C8.78,33.88 10.28,35.84 12.08,37.44C15.24,40.28 19.42,42 24,42C28.58,42 32.76,40.28 35.94,37.44C37.74,35.84 39.24,33.86 40.28,31.66C43.16,30.8 45.38,28.36 45.88,25.32C45.96,24.9 46,24.46 46,24C46,23.54 45.96,23.1 45.88,22.68ZM38,28C37.8,28 37.62,27.96 37.42,27.94C37.02,29.28 36.44,30.52 35.7,31.66C33.2,35.48 28.9,38 24,38C19.1,38 14.8,35.48 12.3,31.66C11.56,30.52 10.98,29.28 10.58,27.94C10.38,27.96 10.2,28 10,28C7.8,28 6,26.2 6,24C6,21.8 7.8,20 10,20C10.2,20 10.38,20.04 10.58,20.06C10.98,18.72 11.56,17.48 12.3,16.34C14.8,12.52 19.1,10 24,10C28.9,10 33.2,12.52 35.7,16.34C36.44,17.48 37.02,18.72 37.42,20.06C37.62,20.04 37.8,20 38,20C40.2,20 42,21.8 42,24C42,26.2 40.2,28 38,28ZM24,34C28.02,34 31.48,31.54 33,28L15,28C16.52,31.54 19.98,34 24,34Z" style="fill:rgb(179,179,179);fill-rule:nonzero;"/>
        </g>
    </g>
    <g transform="matrix(1,0,0,1,-0.0598622,-2.93267)">
        <g transform="matrix(0.875193,0,0,1.08242,3.65884,4.0104)">
            <path d="M3.949,11.079C8.777,9.535 13.839,7.915 18.896,8.271C22.599,8.531 25.964,10.782 29.05,12.845" style="fill:none;stroke:rgb(179,179,179);stroke-width:2px;"/>
        </g>
        <g transform="matrix(0.875193,0,0,1.08242,47.6293,0.641118)">
            <path d="M3.951,14.563L3.876,44.49" style="fill:none;stroke:rgb(179,179,179);stroke-width:2px;"/>
        </g>
        <g transform="matrix(0.875193,0,0,1.08242,25.5806,2.26659)">
            <path d="M3.951,14.563L3.876,44.49" style="fill:none;stroke:rgb(179,179,179);stroke-width:2px;"/>
        </g>
        <g transform="matrix(0.875193,0,0,1.08242,3.6772,0.536092)">
            <path d="M3.951,14.563L3.876,44.49" style="fill:none;stroke:rgb(179,179,179);stroke-width:2px;"/>
        </g>
        <g transform="matrix(0.875193,0,0,1.08242,3.62661,37.0394)">
            <path d="M3.949,11.079C8.777,9.535 13.839,7.915 18.896,8.271C22.599,8.531 25.964,10.782 29.05,12.845" style="fill:none;stroke:rgb(179,179,179);stroke-width:2px;"/>
        </g>
        <g transform="matrix(-0.875193,0,0,1.08242,54.4658,36.9463)">
            <path d="M3.949,11.079C8.777,9.535 13.839,7.915 18.896,8.271C22.599,8.531 25.964,10.782 29.05,12.845" style="fill:none;stroke:rgb(179,179,179);stroke-width:2px;"/>
        </g>
        <g transform="matrix(-0.875193,0,0,1.08242,54.4887,3.99977)">
            <path d="M3.949,11.079C8.777,9.535 13.839,7.915 18.896,8.271C22.599,8.531 25.964,10.782 29.05,12.845" style="fill:none;stroke:rgb(179,179,179);stroke-width:2px;"/>
        </g>
    </g>
    <g transform="matrix(-1,0,0,1,57.794,-2.67946)">
        <g transform="matrix(0.591474,0,0,0.592086,8.32919,13.3693)">
            <path d="M3.949,11.079C8.777,9.535 13.839,7.915 18.896,8.271C22.599,8.531 25.964,10.782 29.05,12.845" style="fill:none;stroke:rgb(179,179,179);stroke-width:3.25px;"/>
        </g>
        <g transform="matrix(-0.875193,0,0,1.08242,54.1767,0.282882)">
            <path d="M32.753,19.116L32.704,27.516" style="fill:none;stroke:rgb(179,179,179);stroke-width:2px;"/>
        </g>
        <g transform="matrix(-0.875193,0,0,1.08242,39.2908,-0.77688)">
            <path d="M32.753,19.116L32.704,27.516" style="fill:none;stroke:rgb(179,179,179);stroke-width:2px;"/>
        </g>
        <g transform="matrix(0.591474,0,0,0.592086,8.32701,22.4179)">
            <path d="M3.949,11.079C8.777,9.535 13.839,7.915 18.896,8.271C22.599,8.531 25.964,10.782 29.05,12.845" style="fill:none;stroke:rgb(179,179,179);stroke-width:3.25px;"/>
        </g>
        <g transform="matrix(0.591474,0,0,0.592086,8.34467,26.8339)">
            <path d="M3.949,11.079C8.777,9.535 13.839,7.915 18.896,8.271C22.599,8.531 25.964,10.782 29.05,12.845" style="fill:none;stroke:rgb(179,179,179);stroke-width:3.25px;"/>
        </g>
        <g transform="matrix(0.591474,0,0,0.592086,8.36822,31.114)">
            <path d="M3.949,11.079C8.777,9.535 13.839,7.915 18.896,8.271C22.599,8.531 25.964,10.782 29.05,12.845" style="fill:none;stroke:rgb(179,179,179);stroke-width:3.25px;"/>
        </g>
        <g transform="matrix(0.591474,0,0,0.592086,8.37885,35.5979)">
            <path d="M3.949,11.079C8.777,9.535 13.839,7.915 18.896,8.271C22.599,8.531 25.964,10.782 29.05,12.845" style="fill:none;stroke:rgb(179,179,179);stroke-width:3.25px;"/>
        </g>
    </g>
</svg>
