<?xml version="1.0" encoding="UTF-8" standalone="no"?>
<!DOCTYPE svg PUBLIC "-//W3C//DTD SVG 1.1//EN" "http://www.w3.org/Graphics/SVG/1.1/DTD/svg11.dtd">
<svg width="100%" height="100%" viewBox="0 0 58 58" version="1.1" xmlns="http://www.w3.org/2000/svg" xmlns:xlink="http://www.w3.org/1999/xlink" xml:space="preserve" xmlns:serif="http://www.serif.com/" style="fill-rule:evenodd;clip-rule:evenodd;stroke-linejoin:round;stroke-miterlimit:2;">
    <g transform="matrix(0.00558483,3.74044e-20,-3.74044e-20,-0.0052794,1.07977,29.8193)">
        <g>
            <path d="M2852.2,3788.5L740.3,2569.6L740.3,-2347L2857.3,-3568.5C4022.3,-4240.8 4984.6,-4790 5000,-4790C5015.4,-4790 5928.9,-4269.1 7034.9,-3630.1C8138.4,-2993.7 9090.4,-2442 9152,-2408.6L9259.8,-2347L9259.8,2569.6L7142.8,3791.1C5980.3,4463.4 5012.8,5012.6 4994.9,5010C4976.9,5010 4012,4460.8 2852.2,3788.5ZM6852.7,3490.9C7835.5,2923.8 8633.6,2451.6 8623.3,2443.9C8613,2433.6 7794.5,1958.9 6803.9,1386.7L5000,344.8L3198.6,1386.6C2205.5,1958.8 1386.9,2433.6 1376.7,2441.3C1348.5,2469.5 4982.1,4553.2 5025.7,4537.8C5046.2,4527.6 5869.9,4058 6852.7,3490.9ZM2995.9,1035.1L4794.7,-4.2L4794.7,-2100.7C4794.7,-3255.5 4787,-4199.8 4779.3,-4199.8C4769,-4199.8 3950.5,-3730.2 2957.4,-3157.9L1150.8,-2113.5L1150.8,-11.9C1150.8,1189 1161.1,2087.2 1173.9,2082C1186.8,2079.5 2005.3,1607.3 2995.9,1035.1ZM8849.2,-14.4L8849.2,-2113.5L7042.6,-3157.9C6049.5,-3730.2 5228.4,-4199.8 5220.7,-4199.8C5213,-4199.8 5205.3,-3255.5 5205.3,-2100.7L5205.3,-4.2L7009.3,1040.2C7999.8,1612.4 8818.4,2084.6 8831.2,2084.6C8841.5,2087.2 8849.2,1142.9 8849.2,-14.4Z" style="fill:rgb(179,179,179);fill-rule:nonzero;stroke:rgb(179,179,179);stroke-width:147.82px;"/>
        </g>
    </g>
</svg>
