<?xml version="1.0" encoding="UTF-8" standalone="no"?>
<!DOCTYPE svg PUBLIC "-//W3C//DTD SVG 1.1//EN" "http://www.w3.org/Graphics/SVG/1.1/DTD/svg11.dtd">
<svg width="100%" height="100%" viewBox="0 0 1571 1184" version="1.1" xmlns="http://www.w3.org/2000/svg" xmlns:xlink="http://www.w3.org/1999/xlink" xml:space="preserve" xmlns:serif="http://www.serif.com/" style="fill-rule:evenodd;clip-rule:evenodd;stroke-linejoin:round;stroke-miterlimit:2;">
    <g transform="matrix(4.16667,0,0,4.16667,0,0)">
        <path d="M252.226,42.221L252.226,113.514C242.019,140.808 220.358,162.342 193.108,172.59L121.835,172.59L121.835,113.514L193.108,113.514L193.108,42.221L252.226,42.221Z" style="fill:rgb(30,161,207);fill-rule:nonzero;"/>
        <path d="M323.519,113.514L323.519,172.59L252.226,172.59L252.226,244.287L193.108,244.287L193.108,172.59C220.358,162.342 242.019,140.808 252.226,113.514L323.519,113.514Z" style="fill:rgb(23,101,162);fill-rule:nonzero;"/>
        <path d="M44.438,244.341L44.438,230.936L52.926,230.936L52.926,230.714C49.799,229.224 47.38,227.103 45.665,224.347C43.953,221.593 43.098,218.427 43.098,214.853C43.098,214.035 43.173,213.232 43.321,212.452C43.471,211.668 43.656,210.87 43.879,210.05L56.835,210.05C56.538,211.166 56.296,212.267 56.11,213.346C55.925,214.425 55.83,215.486 55.83,216.528C55.83,219.656 56.407,222.169 57.562,224.068C58.717,225.967 60.037,227.418 61.527,228.423C63.017,229.429 64.506,230.099 65.994,230.434C67.485,230.769 68.602,230.936 69.345,230.936L98.05,230.936L98.05,244.341L44.438,244.341Z" style="fill:rgb(23,101,162);fill-rule:nonzero;"/>
        <path d="M65.885,190.671C62.014,190.14 58.926,188.715 56.606,186.367C54.3,184.02 53.155,180.833 53.155,176.809C53.155,172.574 54.286,169.263 56.55,166.873C58.828,164.483 61.931,163.268 65.885,163.184L65.885,190.671ZM72.243,149.782C67.563,149.782 63.412,150.397 59.792,151.627C56.187,152.857 53.155,154.576 50.696,156.77C48.236,158.964 46.349,161.604 45.05,164.693C43.75,167.781 43.093,171.191 43.093,174.908C43.093,178.933 43.764,182.734 45.105,186.311C46.447,189.875 48.347,192.977 50.807,195.576C53.266,198.189 56.214,200.258 59.68,201.781C63.146,203.304 67.002,204.073 71.251,204.073C75.485,204.073 79.342,203.304 82.808,201.781C86.273,200.258 89.222,198.189 91.681,195.576C94.141,192.977 96.041,189.874 97.383,186.311C98.459,183.446 99.102,180.428 99.312,177.27L88.621,177.27C88.453,180.638 87.335,183.544 85.323,185.976C83.087,188.659 79.957,190.21 75.932,190.671L75.933,149.782L72.243,149.782Z" style="fill:rgb(23,101,162);fill-rule:nonzero;"/>
        <path d="M44.439,140.189L44.439,126.784L52.927,126.784L52.927,126.562C49.8,125.072 47.381,122.951 45.667,120.195C43.955,117.44 43.099,114.275 43.099,110.701C43.099,109.883 43.174,109.081 43.323,108.299C43.472,107.517 43.657,106.718 43.88,105.898L56.837,105.898C56.54,107.014 56.297,108.114 56.112,109.193C55.926,110.272 55.832,111.334 55.832,112.376C55.831,115.504 56.409,118.017 57.564,119.916C58.718,121.815 60.039,123.267 61.528,124.271C63.018,125.276 64.507,125.947 65.996,126.282C67.487,126.617 68.604,126.784 69.346,126.784L98.052,126.784L98.052,140.189L44.439,140.189Z" style="fill:rgb(30,161,207);fill-rule:nonzero;"/>
        <path d="M71.246,87.426C73.331,87.426 75.342,87.073 77.278,86.364C79.214,85.657 80.927,84.615 82.415,83.236C83.906,81.859 85.096,80.203 85.99,78.265C86.883,76.331 87.33,74.134 87.33,71.676C87.33,69.22 86.883,67.022 85.99,65.086C85.096,63.15 83.906,61.495 82.416,60.116C80.927,58.739 79.215,57.696 77.278,56.987C75.343,56.28 73.331,55.928 71.246,55.928C69.162,55.928 67.153,56.28 65.215,56.987C63.279,57.696 61.567,58.739 60.076,60.116C58.588,61.495 57.397,63.15 56.502,65.086C55.61,67.022 55.162,69.22 55.162,71.676C55.162,74.134 55.61,76.331 56.502,78.265C57.397,80.204 58.588,81.859 60.076,83.236C61.567,84.615 63.279,85.657 65.215,86.364C67.152,87.073 69.161,87.426 71.246,87.426ZM71.245,100.828C67.001,100.828 63.148,100.065 59.686,98.538C56.223,97.013 53.263,94.946 50.806,92.34C48.349,89.734 46.449,86.643 45.11,83.069C43.77,79.495 43.1,75.696 43.1,71.676C43.1,67.656 43.77,63.857 45.11,60.283C46.45,56.709 48.349,53.62 50.806,51.012C53.264,48.407 56.223,46.341 59.687,44.814C63.149,43.289 67.002,42.523 71.246,42.523C75.49,42.523 79.345,43.289 82.807,44.813C86.269,46.341 89.23,48.407 91.687,51.012C94.144,53.62 96.043,56.709 97.383,60.283C98.723,63.857 99.393,67.656 99.393,71.676C99.393,75.696 98.723,79.494 97.382,83.068C96.042,86.643 94.143,89.734 91.686,92.34C89.229,94.946 86.268,97.013 82.806,98.538C79.344,100.065 75.49,100.828 71.245,100.828Z" style="fill:rgb(30,161,207);fill-rule:nonzero;"/>
    </g>
</svg>
