<?xml version="1.0" encoding="UTF-8" standalone="no"?>
<!DOCTYPE svg PUBLIC "-//W3C//DTD SVG 1.1//EN"
 "http://www.w3.org/Graphics/SVG/1.1/DTD/svg11.dtd">
<!-- Generated by graphviz version 2.44.0 (0)
 -->
<!-- Title: G Pages: 1 -->
<svg width="825pt" height="981pt"
 viewBox="0.00 0.00 825.00 980.79" xmlns="http://www.w3.org/2000/svg" xmlns:xlink="http://www.w3.org/1999/xlink">
<g id="graph0" class="graph" transform="scale(1 1) rotate(0) translate(4 976.79)">
<title>G</title>
<polygon fill="white" stroke="transparent" points="-4,4 -4,-976.79 821,-976.79 821,4 -4,4"/>
<text text-anchor="middle" x="408.5" y="-957.59" font-family="Times,serif" font-size="14.00">RERO ILS resources</text>
<g id="clust10" class="cluster">
<title>cluster_01</title>
<polygon fill="none" stroke="black" points="63.5,-722.79 63.5,-941.79 416,-941.79 416,-722.79 63.5,-722.79"/>
<text text-anchor="middle" x="239.75" y="-926.59" font-family="Times,serif" font-size="14.00">Legend</text>
</g>
<!-- Person -->
<g id="node1" class="node">
<title>Person</title>
<polygon fill="#bae1ff" stroke="#bae1ff" points="135.5,-189.79 70.5,-189.79 70.5,-153.79 135.5,-153.79 135.5,-189.79"/>
<text text-anchor="middle" x="103" y="-168.09" font-family="Times,serif" font-size="14.00">Person</text>
</g>
<!-- Document -->
<g id="node2" class="node">
<title>Document</title>
<polygon fill="#bae1ff" stroke="#bae1ff" points="147.5,-261.79 58.5,-261.79 58.5,-225.79 147.5,-225.79 147.5,-261.79"/>
<text text-anchor="middle" x="103" y="-240.09" font-family="Times,serif" font-size="14.00">Document</text>
</g>
<!-- Document&#45;&gt;Person -->
<g id="edge3" class="edge">
<title>Document&#45;&gt;Person</title>
<path fill="none" stroke="black" d="M103,-217.73C103,-211.85 103,-205.98 103,-200.1"/>
<ellipse fill="black" stroke="black" cx="103" cy="-221.74" rx="4" ry="4"/>
<polygon fill="black" stroke="black" points="103,-200.07 107.5,-190.07 103,-195.07 103,-190.07 103,-190.07 103,-190.07 103,-195.07 98.5,-190.07 103,-200.07 103,-200.07"/>
</g>
<!-- Holding -->
<g id="node3" class="node">
<title>Holding</title>
<polygon fill="#bae1ff" stroke="#bae1ff" points="139.5,-333.79 66.5,-333.79 66.5,-297.79 139.5,-297.79 139.5,-333.79"/>
<text text-anchor="middle" x="103" y="-312.09" font-family="Times,serif" font-size="14.00">Holding</text>
</g>
<!-- Holding&#45;&gt;Document -->
<g id="edge2" class="edge">
<title>Holding&#45;&gt;Document</title>
<path fill="none" stroke="black" d="M103,-289.73C103,-283.85 103,-277.98 103,-272.1"/>
<ellipse fill="black" stroke="black" cx="103" cy="-293.74" rx="4" ry="4"/>
<polygon fill="black" stroke="black" points="106.5,-272.07 103,-262.07 99.5,-272.07 106.5,-272.07"/>
</g>
<!-- HITL -->
<g id="node23" class="node">
<title>HITL</title>
<polygon fill="#bae1ff" stroke="transparent" points="496,-505.29 495,-505.29 495,-504.29 496,-504.29 496,-505.29"/>
</g>
<!-- Holding&#45;&gt;HITL -->
<g id="edge29" class="edge">
<title>Holding&#45;&gt;HITL</title>
<path fill="none" stroke="black" d="M147.21,-329.19C165.61,-335.37 187.15,-343.23 206,-351.79 316.54,-401.95 333.98,-434.49 444,-485.79 457.82,-492.23 474.48,-498.16 484.78,-501.63"/>
<ellipse fill="black" stroke="black" cx="143.32" cy="-327.9" rx="4" ry="4"/>
<polygon fill="black" stroke="black" points="483.82,-505 494.42,-504.76 485.99,-498.34 483.82,-505"/>
</g>
<!-- Item -->
<g id="node4" class="node">
<title>Item</title>
<polygon fill="#bae1ff" stroke="#bae1ff" points="130,-405.79 76,-405.79 76,-369.79 130,-369.79 130,-405.79"/>
<text text-anchor="middle" x="103" y="-384.09" font-family="Times,serif" font-size="14.00">Item</text>
</g>
<!-- Item&#45;&gt;Holding -->
<g id="edge1" class="edge">
<title>Item&#45;&gt;Holding</title>
<path fill="none" stroke="black" d="M103,-361.73C103,-355.85 103,-349.98 103,-344.1"/>
<ellipse fill="black" stroke="black" cx="103" cy="-365.74" rx="4" ry="4"/>
<polygon fill="black" stroke="black" points="106.5,-344.07 103,-334.07 99.5,-344.07 106.5,-344.07"/>
</g>
<!-- IDIL -->
<g id="node21" class="node">
<title>IDIL</title>
<polygon fill="#bae1ff" stroke="transparent" points="496,-395.29 495,-395.29 495,-394.29 496,-394.29 496,-395.29"/>
</g>
<!-- Item&#45;&gt;IDIL -->
<g id="edge21" class="edge">
<title>Item&#45;&gt;IDIL</title>
<path fill="none" stroke="red" d="M138.33,-388.4C222.34,-389.91 435.01,-393.72 484.22,-394.6"/>
<ellipse fill="red" stroke="red" cx="134.23" cy="-388.33" rx="4" ry="4"/>
<polygon fill="red" stroke="red" points="484.39,-398.11 494.45,-394.79 484.51,-391.11 484.39,-398.11"/>
</g>
<!-- Loan -->
<g id="node5" class="node">
<title>Loan</title>
<polygon fill="#bae1ff" stroke="#bae1ff" points="130,-477.79 76,-477.79 76,-441.79 130,-441.79 130,-477.79"/>
<text text-anchor="middle" x="103" y="-456.09" font-family="Times,serif" font-size="14.00">Loan</text>
</g>
<!-- Loan&#45;&gt;Item -->
<g id="edge7" class="edge">
<title>Loan&#45;&gt;Item</title>
<path fill="none" stroke="black" d="M103,-433.73C103,-427.85 103,-421.98 103,-416.1"/>
<ellipse fill="black" stroke="black" cx="103" cy="-437.74" rx="4" ry="4"/>
<polygon fill="black" stroke="black" points="106.5,-416.07 103,-406.07 99.5,-416.07 106.5,-416.07"/>
</g>
<!-- Notification -->
<g id="node6" class="node">
<title>Notification</title>
<polygon fill="#bae1ff" stroke="#bae1ff" points="153,-549.79 53,-549.79 53,-513.79 153,-513.79 153,-549.79"/>
<text text-anchor="middle" x="103" y="-528.09" font-family="Times,serif" font-size="14.00">Notification</text>
</g>
<!-- Notification&#45;&gt;Loan -->
<g id="edge6" class="edge">
<title>Notification&#45;&gt;Loan</title>
<path fill="none" stroke="black" d="M103,-505.73C103,-499.85 103,-493.98 103,-488.1"/>
<ellipse fill="black" stroke="black" cx="103" cy="-509.74" rx="4" ry="4"/>
<polygon fill="black" stroke="black" points="106.5,-488.07 103,-478.07 99.5,-488.07 106.5,-488.07"/>
</g>
<!-- Patron Transaction -->
<g id="node7" class="node">
<title>Patron Transaction</title>
<polygon fill="#bae1ff" stroke="#bae1ff" points="179,-621.79 27,-621.79 27,-585.79 179,-585.79 179,-621.79"/>
<text text-anchor="middle" x="103" y="-600.09" font-family="Times,serif" font-size="14.00">Patron Transaction</text>
</g>
<!-- Patron Transaction&#45;&gt;Notification -->
<g id="edge5" class="edge">
<title>Patron Transaction&#45;&gt;Notification</title>
<path fill="none" stroke="black" d="M103,-577.73C103,-571.85 103,-565.98 103,-560.1"/>
<ellipse fill="black" stroke="black" cx="103" cy="-581.74" rx="4" ry="4"/>
<polygon fill="black" stroke="black" points="106.5,-560.07 103,-550.07 99.5,-560.07 106.5,-560.07"/>
</g>
<!-- Role -->
<g id="node13" class="node">
<title>Role</title>
<path fill="#bae1ff" stroke="black" d="M295.5,-566.79C295.5,-566.79 354.5,-566.79 354.5,-566.79 360.5,-566.79 366.5,-572.79 366.5,-578.79 366.5,-578.79 366.5,-600.79 366.5,-600.79 366.5,-606.79 360.5,-612.79 354.5,-612.79 354.5,-612.79 295.5,-612.79 295.5,-612.79 289.5,-612.79 283.5,-606.79 283.5,-600.79 283.5,-600.79 283.5,-578.79 283.5,-578.79 283.5,-572.79 289.5,-566.79 295.5,-566.79"/>
<text text-anchor="middle" x="325" y="-597.59" font-family="Times,serif" font-size="14.00">Librarian</text>
<polyline fill="none" stroke="black" points="283.5,-589.79 366.5,-589.79 "/>
<text text-anchor="middle" x="325" y="-574.59" font-family="Times,serif" font-size="14.00">Patron</text>
</g>
<!-- Patron Transaction&#45;&gt;Role -->
<g id="edge13" class="edge">
<title>Patron Transaction&#45;&gt;Role:patron</title>
<path fill="none" stroke="black" d="M187.68,-586.47C214.09,-582.21 243.71,-578.65 271.75,-577.92"/>
<ellipse fill="black" stroke="black" cx="183.38" cy="-587.19" rx="4" ry="4"/>
<polygon fill="black" stroke="black" points="272.05,-581.42 282,-577.79 271.95,-574.42 272.05,-581.42"/>
</g>
<!-- Patron Transaction Events -->
<g id="node8" class="node">
<title>Patron Transaction Events</title>
<polygon fill="#bae1ff" stroke="#bae1ff" points="206,-693.79 0,-693.79 0,-657.79 206,-657.79 206,-693.79"/>
<text text-anchor="middle" x="103" y="-672.09" font-family="Times,serif" font-size="14.00">Patron Transaction Events</text>
</g>
<!-- Patron Transaction Events&#45;&gt;Patron Transaction -->
<g id="edge4" class="edge">
<title>Patron Transaction Events&#45;&gt;Patron Transaction</title>
<path fill="none" stroke="black" d="M103,-649.73C103,-643.85 103,-637.98 103,-632.1"/>
<ellipse fill="black" stroke="black" cx="103" cy="-653.74" rx="4" ry="4"/>
<polygon fill="black" stroke="black" points="106.5,-632.07 103,-622.07 99.5,-632.07 106.5,-632.07"/>
</g>
<!-- Location -->
<g id="node11" class="node">
<title>Location</title>
<polygon fill="#bae1ff" stroke="#bae1ff" points="801,-499.79 724,-499.79 724,-463.79 801,-463.79 801,-499.79"/>
<text text-anchor="middle" x="762.5" y="-478.09" font-family="Times,serif" font-size="14.00">Location</text>
</g>
<!-- Patron Transaction Events&#45;&gt;Location -->
<g id="edge15" class="edge">
<title>Patron Transaction Events&#45;&gt;Location</title>
<path fill="none" stroke="green" d="M214.55,-669.75C306.13,-661.91 438.39,-643.93 547,-602.79 614.42,-577.25 686.09,-532.85 727.16,-505.53"/>
<ellipse fill="green" stroke="green" cx="210.36" cy="-670.1" rx="4" ry="4"/>
<polygon fill="green" stroke="green" points="729.34,-508.28 735.69,-499.8 725.44,-502.47 729.34,-508.28"/>
</g>
<!-- Patron Transaction Events&#45;&gt;Role -->
<g id="edge14" class="edge">
<title>Patron Transaction Events&#45;&gt;Role:librarian</title>
<path fill="none" stroke="black" d="M166.65,-655.06C179.77,-650.33 193.43,-645.12 206,-639.79 237.37,-626.47 243.26,-606.25 271.86,-602.42"/>
<ellipse fill="black" stroke="black" cx="162.77" cy="-656.44" rx="4" ry="4"/>
<polygon fill="black" stroke="black" points="272.24,-605.91 282,-601.79 271.8,-598.92 272.24,-605.91"/>
</g>
<!-- Organisation -->
<g id="node9" class="node">
<title>Organisation</title>
<polygon fill="#bae1ff" stroke="#bae1ff" points="817,-280.79 708,-280.79 708,-244.79 817,-244.79 817,-280.79"/>
<text text-anchor="middle" x="762.5" y="-259.09" font-family="Times,serif" font-size="14.00">Organisation</text>
</g>
<!-- Library -->
<g id="node10" class="node">
<title>Library</title>
<polygon fill="#bae1ff" stroke="#bae1ff" points="797,-427.79 728,-427.79 728,-391.79 797,-391.79 797,-427.79"/>
<text text-anchor="middle" x="762.5" y="-406.09" font-family="Times,serif" font-size="14.00">Library</text>
</g>
<!-- Library&#45;&gt;Organisation -->
<g id="edge9" class="edge">
<title>Library&#45;&gt;Organisation</title>
<path fill="none" stroke="black" d="M762.5,-383.42C762.5,-352.7 762.5,-321.98 762.5,-291.26"/>
<ellipse fill="black" stroke="black" cx="762.5" cy="-387.66" rx="4" ry="4"/>
<polygon fill="black" stroke="black" points="766,-290.88 762.5,-280.88 759,-290.88 766,-290.88"/>
</g>
<!-- Location&#45;&gt;Library -->
<g id="edge8" class="edge">
<title>Location&#45;&gt;Library</title>
<path fill="none" stroke="black" d="M762.5,-455.73C762.5,-449.85 762.5,-443.98 762.5,-438.1"/>
<ellipse fill="black" stroke="black" cx="762.5" cy="-459.74" rx="4" ry="4"/>
<polygon fill="black" stroke="black" points="766,-438.07 762.5,-428.07 759,-438.07 766,-438.07"/>
</g>
<!-- Patron Type -->
<g id="node12" class="node">
<title>Patron Type</title>
<polygon fill="#bae1ff" stroke="#bae1ff" points="547,-137.79 444,-137.79 444,-101.79 547,-101.79 547,-137.79"/>
<text text-anchor="middle" x="495.5" y="-116.09" font-family="Times,serif" font-size="14.00">Patron Type</text>
</g>
<!-- PTBV -->
<g id="node22" class="node">
<title>PTBV</title>
<polygon fill="#bae1ff" stroke="transparent" points="628,-93.29 627,-93.29 627,-92.29 628,-92.29 628,-93.29"/>
</g>
<!-- Patron Type&#45;&gt;PTBV -->
<g id="edge25" class="edge">
<title>Patron Type&#45;&gt;PTBV</title>
<path fill="none" stroke="black" d="M547.13,-109.27C572.83,-103.94 601.67,-97.94 616.5,-94.86"/>
<polygon fill="black" stroke="black" points="617.3,-98.27 626.38,-92.81 615.87,-91.42 617.3,-98.27"/>
</g>
<!-- PBVO -->
<g id="node26" class="node">
<title>PBVO</title>
<polygon fill="#bae1ff" stroke="transparent" points="628,-148.29 627,-148.29 627,-147.29 628,-147.29 628,-148.29"/>
</g>
<!-- Patron Type&#45;&gt;PBVO -->
<g id="edge38" class="edge">
<title>Patron Type&#45;&gt;PBVO</title>
<path fill="none" stroke="green" d="M555.09,-132.41C578.52,-137.45 603.08,-142.74 616.41,-145.62"/>
<ellipse fill="green" stroke="green" cx="551.04" cy="-131.54" rx="4" ry="4"/>
<polygon fill="green" stroke="green" points="615.86,-149.08 626.38,-147.76 617.34,-142.23 615.86,-149.08"/>
</g>
<!-- Role&#45;&gt;Library -->
<g id="edge11" class="edge">
<title>Role:librarian&#45;&gt;Library</title>
<path fill="none" stroke="gray" d="M376.06,-601.73C516.06,-599.64 546.47,-542.8 672,-471.79 689.18,-462.07 691.81,-457.08 708,-445.79 713.68,-441.83 719.73,-437.68 725.65,-433.67"/>
<ellipse fill="gray" stroke="gray" cx="372" cy="-601.76" rx="4" ry="4"/>
<polygon fill="gray" stroke="gray" points="727.83,-436.42 734.16,-427.93 723.92,-430.62 727.83,-436.42"/>
<text text-anchor="middle" x="516.46" y="-527.48" font-family="Times,serif" font-size="14.00" fill="gray">role=librarian</text>
</g>
<!-- Role&#45;&gt;Patron Type -->
<g id="edge10" class="edge">
<title>Role:patron&#45;&gt;Patron Type</title>
<path fill="none" stroke="blue" d="M370.32,-569.99C384.7,-519.54 461.95,-238.35 486.8,-147.85"/>
<ellipse fill="blue" stroke="blue" cx="369.14" cy="-573.95" rx="4" ry="4"/>
<polygon fill="blue" stroke="blue" points="490.22,-148.59 489.49,-138.02 483.47,-146.74 490.22,-148.59"/>
<text text-anchor="middle" x="385.04" y="-346.73" font-family="Times,serif" font-size="14.00" fill="blue">role=patron</text>
</g>
<!-- Item Type -->
<g id="node14" class="node">
<title>Item Type</title>
<polygon fill="#bae1ff" stroke="#bae1ff" points="672,-416.79 583,-416.79 583,-380.79 672,-380.79 672,-416.79"/>
<text text-anchor="middle" x="627.5" y="-395.09" font-family="Times,serif" font-size="14.00">Item Type</text>
</g>
<!-- Item Type&#45;&gt;Organisation -->
<g id="edge12" class="edge">
<title>Item Type&#45;&gt;Organisation</title>
<path fill="none" stroke="black" d="M651.83,-374.93C675.6,-350.62 712.34,-313.06 736.65,-288.2"/>
<ellipse fill="black" stroke="black" cx="648.96" cy="-377.87" rx="4" ry="4"/>
<polygon fill="black" stroke="black" points="739.28,-290.52 743.77,-280.92 734.27,-285.62 739.28,-290.52"/>
</g>
<!-- Circ Policy -->
<g id="node15" class="node">
<title>Circ Policy</title>
<polygon fill="#bae1ff" stroke="#bae1ff" points="541.5,-467.79 449.5,-467.79 449.5,-431.79 541.5,-431.79 541.5,-467.79"/>
<text text-anchor="middle" x="495.5" y="-446.09" font-family="Times,serif" font-size="14.00">Circ Policy</text>
</g>
<!-- Circ Policy&#45;&gt;Item Type -->
<g id="edge16" class="edge">
<title>Circ Policy&#45;&gt;Item Type</title>
<path fill="none" stroke="black" d="M549.22,-429.1C557.15,-425.99 565.33,-422.79 573.26,-419.67"/>
<ellipse fill="black" stroke="black" cx="545.33" cy="-430.63" rx="4" ry="4"/>
<polygon fill="black" stroke="black" points="574.76,-422.85 582.79,-415.93 572.2,-416.33 574.76,-422.85"/>
</g>
<!-- CLL -->
<g id="node25" class="node">
<title>CLL</title>
<polygon fill="#bae1ff" stroke="transparent" points="628,-454.29 627,-454.29 627,-453.29 628,-453.29 628,-454.29"/>
</g>
<!-- Circ Policy&#45;&gt;CLL -->
<g id="edge35" class="edge">
<title>Circ Policy&#45;&gt;CLL</title>
<path fill="none" stroke="black" d="M549.83,-451.43C574.48,-452.19 601.45,-453.02 615.91,-453.46"/>
<ellipse fill="black" stroke="black" cx="545.6" cy="-451.3" rx="4" ry="4"/>
<polygon fill="black" stroke="black" points="616.26,-456.97 626.36,-453.78 616.48,-449.98 616.26,-456.97"/>
</g>
<!-- Budget -->
<g id="node16" class="node">
<title>Budget</title>
<polygon fill="#bae1ff" stroke="#bae1ff" points="359,-105.79 291,-105.79 291,-69.79 359,-69.79 359,-105.79"/>
<text text-anchor="middle" x="325" y="-84.09" font-family="Times,serif" font-size="14.00">Budget</text>
</g>
<!-- Budget&#45;&gt;PTBV -->
<g id="edge26" class="edge">
<title>Budget&#45;&gt;PTBV</title>
<path fill="none" stroke="black" d="M345.91,-69.77C368.02,-51.08 405.66,-23.07 444,-11.79 487.92,1.13 504.79,5.93 547,-11.79 582.59,-26.73 610.26,-66.23 621.3,-83.96"/>
<polygon fill="black" stroke="black" points="618.38,-85.91 626.48,-92.74 624.41,-82.35 618.38,-85.91"/>
</g>
<!-- Budget&#45;&gt;PBVO -->
<g id="edge39" class="edge">
<title>Budget&#45;&gt;PBVO</title>
<path fill="none" stroke="green" d="M366.85,-99.53C383.03,-105.32 401.25,-113.34 416,-123.79 431.42,-134.71 426.79,-147.98 444,-155.79 504.55,-183.27 588.34,-160.37 616.68,-151.18"/>
<ellipse fill="green" stroke="green" cx="362.88" cy="-98.17" rx="4" ry="4"/>
<polygon fill="green" stroke="green" points="618.11,-154.39 626.42,-147.82 615.83,-147.77 618.11,-154.39"/>
</g>
<!-- Account -->
<g id="node17" class="node">
<title>Account</title>
<polygon fill="#bae1ff" stroke="#bae1ff" points="362,-177.79 288,-177.79 288,-141.79 362,-141.79 362,-177.79"/>
<text text-anchor="middle" x="325" y="-156.09" font-family="Times,serif" font-size="14.00">Account</text>
</g>
<!-- Account&#45;&gt;Budget -->
<g id="edge18" class="edge">
<title>Account&#45;&gt;Budget</title>
<path fill="none" stroke="black" d="M325,-133.73C325,-127.85 325,-121.98 325,-116.1"/>
<ellipse fill="black" stroke="black" cx="325" cy="-137.74" rx="4" ry="4"/>
<polygon fill="black" stroke="black" points="328.5,-116.07 325,-106.07 321.5,-116.07 328.5,-116.07"/>
</g>
<!-- AOL -->
<g id="node24" class="node">
<title>AOL</title>
<polygon fill="#bae1ff" stroke="transparent" points="628,-270.29 627,-270.29 627,-269.29 628,-269.29 628,-270.29"/>
</g>
<!-- Account&#45;&gt;AOL -->
<g id="edge33" class="edge">
<title>Account&#45;&gt;AOL</title>
<path fill="none" stroke="black" d="M369.91,-175.86C441.57,-202.09 579.44,-252.56 616.91,-266.28"/>
<ellipse fill="black" stroke="black" cx="366" cy="-174.43" rx="4" ry="4"/>
<polygon fill="black" stroke="black" points="615.77,-269.59 626.37,-269.74 618.18,-263.01 615.77,-269.59"/>
</g>
<!-- Order Lines -->
<g id="node18" class="node">
<title>Order Lines</title>
<polygon fill="#bae1ff" stroke="#bae1ff" points="375.5,-249.79 274.5,-249.79 274.5,-213.79 375.5,-213.79 375.5,-249.79"/>
<text text-anchor="middle" x="325" y="-228.09" font-family="Times,serif" font-size="14.00">Order Lines</text>
</g>
<!-- Order Lines&#45;&gt;Account -->
<g id="edge17" class="edge">
<title>Order Lines&#45;&gt;Account</title>
<path fill="none" stroke="black" d="M325,-205.73C325,-199.85 325,-193.98 325,-188.1"/>
<ellipse fill="black" stroke="black" cx="325" cy="-209.74" rx="4" ry="4"/>
<polygon fill="black" stroke="black" points="328.5,-188.07 325,-178.07 321.5,-188.07 328.5,-188.07"/>
</g>
<!-- Order -->
<g id="node19" class="node">
<title>Order</title>
<polygon fill="#bae1ff" stroke="#bae1ff" points="525,-357.79 466,-357.79 466,-321.79 525,-321.79 525,-357.79"/>
<text text-anchor="middle" x="495.5" y="-336.09" font-family="Times,serif" font-size="14.00">Order</text>
</g>
<!-- Order Lines&#45;&gt;Order -->
<g id="edge20" class="edge">
<title>Order Lines&#45;&gt;Order</title>
<path fill="none" stroke="black" d="M374.41,-253.64C388.18,-260.48 402.97,-268.44 416,-276.79 433.75,-288.17 452.21,-302.81 466.76,-315.12"/>
<ellipse fill="black" stroke="black" cx="370.47" cy="-251.71" rx="4" ry="4"/>
<polygon fill="black" stroke="black" points="464.54,-317.83 474.42,-321.68 469.1,-312.52 464.54,-317.83"/>
</g>
<!-- Vendor -->
<g id="node20" class="node">
<title>Vendor</title>
<polygon fill="#bae1ff" stroke="#bae1ff" points="529,-65.79 462,-65.79 462,-29.79 529,-29.79 529,-65.79"/>
<text text-anchor="middle" x="495.5" y="-44.09" font-family="Times,serif" font-size="14.00">Vendor</text>
</g>
<!-- Order&#45;&gt;Vendor -->
<g id="edge19" class="edge">
<title>Order&#45;&gt;Vendor</title>
<path fill="none" stroke="black" d="M459.84,-316.42C447.5,-306.02 435.41,-292.55 430,-276.79 417.38,-240 417.38,-138.57 430,-101.79 434.23,-89.47 443.34,-79.22 453.46,-71.08"/>
<ellipse fill="black" stroke="black" cx="463.16" cy="-319.07" rx="4" ry="4"/>
<polygon fill="black" stroke="black" points="455.74,-73.75 461.73,-65 451.6,-68.11 455.74,-73.75"/>
</g>
<!-- Order&#45;&gt;AOL -->
<g id="edge32" class="edge">
<title>Order&#45;&gt;AOL</title>
<path fill="none" stroke="black" d="M532.35,-320.48C561.33,-304.88 600.04,-284.04 617.4,-274.69"/>
<ellipse fill="black" stroke="black" cx="528.55" cy="-322.53" rx="4" ry="4"/>
<polygon fill="black" stroke="black" points="619.31,-277.64 626.45,-269.81 615.99,-271.47 619.31,-277.64"/>
</g>
<!-- Vendor&#45;&gt;PTBV -->
<g id="edge27" class="edge">
<title>Vendor&#45;&gt;PTBV</title>
<path fill="none" stroke="black" d="M529.3,-59.14C558.16,-69.13 598.34,-83.04 616.68,-89.39"/>
<polygon fill="black" stroke="black" points="615.74,-92.77 626.33,-92.73 618.03,-86.15 615.74,-92.77"/>
</g>
<!-- Vendor&#45;&gt;PBVO -->
<g id="edge40" class="edge">
<title>Vendor&#45;&gt;PBVO</title>
<path fill="none" stroke="green" d="M529.27,-70.73C535.21,-75.01 541.33,-79.49 547,-83.79 573.81,-104.11 604.59,-129.49 618.69,-141.25"/>
<ellipse fill="green" stroke="green" cx="525.66" cy="-68.14" rx="4" ry="4"/>
<polygon fill="green" stroke="green" points="616.46,-143.95 626.37,-147.68 620.95,-138.58 616.46,-143.95"/>
</g>
<!-- IDIL&#45;&gt;Document -->
<g id="edge22" class="edge">
<title>IDIL&#45;&gt;Document</title>
<path fill="none" stroke="red" d="M494.41,-394.77C492.64,-394.37 463.87,-387.82 444,-375.79 429.73,-367.15 430.4,-359.22 416,-350.79 332.03,-301.63 222.09,-270.59 157.63,-255.27"/>
<polygon fill="red" stroke="red" points="158.23,-251.82 147.69,-252.95 156.63,-258.63 158.23,-251.82"/>
</g>
<!-- IDIL&#45;&gt;Location -->
<g id="edge23" class="edge">
<title>IDIL&#45;&gt;Location</title>
<path fill="none" stroke="red" d="M496.56,-394.76C499.1,-393.81 580.52,-363.23 583,-362.79 621.94,-355.82 638.93,-341.08 672,-362.79 705.62,-384.85 682.29,-414.88 708,-445.79 711.54,-450.04 715.7,-453.99 720.11,-457.59"/>
<polygon fill="red" stroke="red" points="718.15,-460.5 728.25,-463.71 722.36,-454.9 718.15,-460.5"/>
</g>
<!-- IDIL&#45;&gt;Item Type -->
<g id="edge24" class="edge">
<title>IDIL&#45;&gt;Item Type</title>
<path fill="none" stroke="red" d="M496.59,-394.79C498.76,-394.86 537.99,-396.06 572.78,-397.13"/>
<polygon fill="red" stroke="red" points="572.8,-400.64 582.91,-397.45 573.02,-393.64 572.8,-400.64"/>
</g>
<!-- PTBV&#45;&gt;Organisation -->
<g id="edge28" class="edge">
<title>PTBV&#45;&gt;Organisation</title>
<path fill="none" stroke="black" d="M628.58,-92.84C630.16,-93.87 655.71,-110.74 672,-128.79 702.48,-162.56 730.35,-207.5 746.63,-235.79"/>
<polygon fill="black" stroke="black" points="743.71,-237.74 751.69,-244.7 749.8,-234.28 743.71,-237.74"/>
</g>
<!-- HITL&#45;&gt;Location -->
<g id="edge31" class="edge">
<title>HITL&#45;&gt;Location</title>
<path fill="none" stroke="black" d="M496.55,-504.78C499.51,-504.53 638.04,-492.5 713.57,-485.95"/>
<polygon fill="black" stroke="black" points="714.13,-489.41 723.79,-485.06 713.52,-482.44 714.13,-489.41"/>
</g>
<!-- HITL&#45;&gt;Item Type -->
<g id="edge30" class="edge">
<title>HITL&#45;&gt;Item Type</title>
<path fill="none" stroke="black" d="M496.59,-504.77C498.46,-504.51 528.62,-499.99 547,-485.79 568.95,-468.82 564.15,-455.14 583,-434.79 586.49,-431.02 590.38,-427.28 594.35,-423.73"/>
<polygon fill="black" stroke="black" points="596.7,-426.32 602.01,-417.15 592.14,-421.01 596.7,-426.32"/>
</g>
<!-- AOL&#45;&gt;Library -->
<g id="edge34" class="edge">
<title>AOL&#45;&gt;Library</title>
<path fill="none" stroke="black" d="M628.58,-269.82C630.14,-270.58 655.47,-282.86 672,-297.79 700.63,-323.63 727.4,-359.23 744.06,-383.3"/>
<polygon fill="black" stroke="black" points="741.2,-385.32 749.73,-391.61 746.99,-381.37 741.2,-385.32"/>
</g>
<!-- CLL&#45;&gt;Library -->
<g id="edge36" class="edge">
<title>CLL&#45;&gt;Library</title>
<path fill="none" stroke="black" d="M628.6,-453.76C631.06,-452.94 680.19,-436.69 718,-424.18"/>
<polygon fill="black" stroke="black" points="719.43,-427.39 727.83,-420.93 717.23,-420.75 719.43,-427.39"/>
<text text-anchor="middle" x="634.76" y="-426.13" font-family="Times,serif" font-size="14.00">library level</text>
</g>
<!-- CLL&#45;&gt;Location -->
<g id="edge37" class="edge">
<title>CLL&#45;&gt;Location</title>
<path fill="none" stroke="black" d="M628.6,-453.81C630.96,-454.31 676.4,-463.87 713.49,-471.68"/>
<polygon fill="black" stroke="black" points="713.19,-475.19 723.69,-473.83 714.63,-468.34 713.19,-475.19"/>
</g>
<!-- PBVO&#45;&gt;Organisation -->
<g id="edge41" class="edge">
<title>PBVO&#45;&gt;Organisation</title>
<path fill="none" stroke="green" d="M628.6,-147.87C631.39,-150.29 694.45,-204.81 732.69,-237.87"/>
<polygon fill="green" stroke="green" points="730.59,-240.68 740.44,-244.58 735.16,-235.39 730.59,-240.68"/>
</g>
<!-- Object -->
<g id="node27" class="node">
<title>Object</title>
<polygon fill="#bae1ff" stroke="#bae1ff" points="134.5,-910.79 71.5,-910.79 71.5,-874.79 134.5,-874.79 134.5,-910.79"/>
<text text-anchor="middle" x="103" y="-889.09" font-family="Times,serif" font-size="14.00">Object</text>
</g>
<!-- Object2 -->
<g id="node28" class="node">
<title>Object2</title>
<text text-anchor="middle" x="325" y="-889.09" font-family="Times,serif" font-size="14.00">Object</text>
</g>
<!-- Black -->
<g id="node29" class="node">
<title>Black</title>
</g>
<!-- Black2 -->
<g id="node31" class="node">
<title>Black2</title>
<text text-anchor="middle" x="325" y="-817.09" font-family="Times,serif" font-size="14.00">Relations by pid $ref</text>
</g>
<!-- Black&#45;&gt;Black2 -->
<g id="edge42" class="edge">
<title>Black&#45;&gt;Black2</title>
<path fill="none" stroke="black" d="M138.25,-820.79C163.26,-820.79 198.42,-820.79 231.43,-820.79"/>
<ellipse fill="black" stroke="black" cx="134.1" cy="-820.79" rx="4" ry="4"/>
<polygon fill="black" stroke="black" points="231.59,-824.29 241.59,-820.79 231.59,-817.29 231.59,-824.29"/>
</g>
<!-- Red -->
<g id="node30" class="node">
<title>Red</title>
</g>
<!-- Red2 -->
<g id="node32" class="node">
<title>Red2</title>
<text text-anchor="middle" x="325" y="-745.09" font-family="Times,serif" font-size="14.00">Relations to remove</text>
</g>
<!-- Red&#45;&gt;Red2 -->
<g id="edge43" class="edge">
<title>Red&#45;&gt;Red2</title>
<path fill="none" stroke="red" d="M138.46,-748.79C164.15,-748.79 200.47,-748.79 234.17,-748.79"/>
<ellipse fill="red" stroke="red" cx="134.1" cy="-748.79" rx="4" ry="4"/>
<polygon fill="red" stroke="red" points="234.53,-752.29 244.53,-748.79 234.53,-745.29 234.53,-752.29"/>
</g>
</g>
</svg>
