<?xml version="1.0" encoding="UTF-8" standalone="no"?><!DOCTYPE svg PUBLIC "-//W3C//DTD SVG 1.1//EN" "http://www.w3.org/Graphics/SVG/1.1/DTD/svg11.dtd"><svg width="100%" height="100%" viewBox="0 0 812 208" version="1.1" xmlns="http://www.w3.org/2000/svg" xmlns:xlink="http://www.w3.org/1999/xlink" xml:space="preserve" xmlns:serif="http://www.serif.com/" style="fill-rule:evenodd;clip-rule:evenodd;stroke-linejoin:round;stroke-miterlimit:1.41421;"><g><path d="M-0.001,53.094l37.584,0l0,23.737l0.591,0c8.167,-17.17 24.742,-27.487 44.446,-27.487c4.704,0 9.063,0.9 13.442,2.171l0,36.287c-6.225,-1.571 -12.192,-2.808 -18.129,-2.808c-35.363,0 -40.35,29.721 -40.35,37.867l0,80.412l-37.584,0l0,-150.179Z" style="fill:#105e9a;fill-rule:nonzero;"/><path d="M327.67,122.861c0,-8.146 5.013,-37.867 40.367,-37.867c5.929,0 11.879,1.237 18.138,2.808l0,-36.287c-4.388,-1.271 -8.759,-2.175 -13.446,-2.175c-19.734,0 -36.3,10.321 -44.45,27.491l-0.609,0l0,-23.737l-37.558,0l0,118.221l37.558,0l0,-48.454Z" style="fill:#289fcc;fill-rule:nonzero;"/><path d="M480.412,173.227c-27.508,0 -44.108,-21.591 -44.108,-45.091c0,-23.446 16.6,-45.021 44.108,-45.021c27.554,0 44.125,21.575 44.125,45.021c0,23.5 -16.571,45.091 -44.125,45.091m0,-123.883c-45.362,0 -81.65,31.575 -81.65,78.792c0,16.566 4.525,31.158 12.258,43.162l26.384,0l0,24.758c12.466,7.038 27.171,10.967 43.008,10.967c45.388,0 81.684,-31.608 81.684,-78.887c0,-47.217 -36.296,-78.792 -81.684,-78.792" style="fill:#289fcc;fill-rule:nonzero;"/><path d="M185.012,77.473c23.454,0 37.85,13.754 38.167,35.683l-76.971,0c2.825,-21.57 16.579,-35.683 38.804,-35.683m1.529,99.513c-20.921,0 -37.825,-13.455 -40.333,-35.663l114.512,0l0,-10.342c0,-52.229 -28.483,-81.641 -70.404,-81.641c-45.358,0 -81.679,31.575 -81.679,78.791c0,46.013 34.408,77.1 78.058,78.738l0,-29.892c-0.046,0 -0.087,0.009 -0.154,0.009" style="fill:#105e9a;fill-rule:nonzero;"/><g><path d="M646.668,169.573l29.117,-33.863c18.1,-21 34.363,-42.788 34.363,-71.925c0,-36.225 -28.067,-63.788 -64.266,-63.788c-40.659,0 -62.431,29.4 -65.054,67.463l40.921,0c-0.787,-14.963 7.082,-33.863 24.395,-33.863c16.263,0 25.444,17.85 25.444,32.025c0,22.313 -29.117,56.7 -43.019,74.025l-50.364,63.526l133.255,0l0,-33.6l-64.792,0Z" style="fill:#105e9a;fill-rule:nonzero;"/><path d="M773.366,38.847l0,164.326l38.56,0l0,-197.926l-64.529,0l0,33.6l25.969,0Z" style="fill:#105e9a;fill-rule:nonzero;"/></g><path d="M212.516,5.177c-6.675,10.279 -15.712,18.684 -26.425,24.675l0,-24.829l26.425,0.017l0,0.137Z" style="fill:#105e9a;fill-rule:nonzero;"/><path d="M-0.001,53.094l37.584,0l0,23.737l0.591,0c8.167,-17.17 24.742,-27.487 44.446,-27.487c4.704,0 9.063,0.9 13.442,2.171l0,36.287c-6.225,-1.571 -12.192,-2.808 -18.129,-2.808c-35.363,0 -40.35,29.721 -40.35,37.867l0,80.412l-37.584,0l0,-150.179Z" style="fill:#105e9a;fill-rule:nonzero;"/><path d="M327.67,122.861c0,-8.146 5.013,-37.867 40.367,-37.867c5.929,0 11.879,1.237 18.138,2.808l0,-36.287c-4.388,-1.271 -8.759,-2.175 -13.446,-2.175c-19.734,0 -36.3,10.321 -44.45,27.491l-0.609,0l0,-23.737l-37.558,0l0,118.221l37.558,0l0,-48.454Z" style="fill:#289fcc;fill-rule:nonzero;"/><path d="M480.412,173.227c-27.508,0 -44.108,-21.591 -44.108,-45.091c0,-23.446 16.6,-45.021 44.108,-45.021c27.554,0 44.125,21.575 44.125,45.021c0,23.5 -16.571,45.091 -44.125,45.091m0,-123.883c-45.362,0 -81.65,31.575 -81.65,78.792c0,16.566 4.525,31.158 12.258,43.162l26.384,0l0,24.758c12.466,7.038 27.171,10.967 43.008,10.967c45.388,0 81.684,-31.608 81.684,-78.887c0,-47.217 -36.296,-78.792 -81.684,-78.792" style="fill:#289fcc;fill-rule:nonzero;"/><path d="M185.012,77.473c23.454,0 37.85,13.754 38.167,35.683l-76.971,0c2.825,-21.57 16.579,-35.683 38.804,-35.683m1.529,99.513c-20.921,0 -37.825,-13.455 -40.333,-35.663l114.512,0l0,-10.342c0,-52.229 -28.483,-81.641 -70.404,-81.641c-45.358,0 -81.679,31.575 -81.679,78.791c0,46.013 34.408,77.1 78.058,78.738l0,-29.892c-0.046,0 -0.087,0.009 -0.154,0.009" style="fill:#105e9a;fill-rule:nonzero;"/><path d="M212.516,5.177c-6.675,10.279 -15.712,18.684 -26.425,24.675l0,-24.829l26.425,0.017l0,0.137Z" style="fill:#105e9a;fill-rule:nonzero;"/></g></svg>